<svg xmlns="http://www.w3.org/2000/svg" xmlns:xlink="http://www.w3.org/1999/xlink" id="processonSvg1000" viewBox="31.5 45.5 964.0 891.0" width="964.0" height="891.0"><defs id="ProcessOnDefs1001"/><g id="ProcessOnG1002"><path id="ProcessOnPath1003" d="M31.5 45.5H995.5V936.5H31.5V45.5Z" fill="none"/><g id="ProcessOnG1004"><g id="ProcessOnG1005" transform="matrix(1.0,0.0,0.0,1.0,478.0,346.0)" opacity="1.0"><path id="ProcessOnPath1006" d="M24.96 121.1C-20.8 86.5 8.32 60.55 18.72 51.9C14.560000000000002 8.65 66.56 0.0 87.36 17.3C104.0 -8.65 156.0 0.0 156.0 25.95C197.6 17.3 214.24 51.9 197.6 95.15C212.16 129.75 197.6 173.0 149.76 155.70000000000002C139.36 178.19 97.75999999999999 178.19 87.36 155.70000000000002C66.56 173.0 24.96 164.35 24.96 121.1Z" stroke="#323232" stroke-width="2.0" stroke-dasharray="none" opacity="1.0" fill="#ffffff"/><g id="ProcessOnG1007" transform="matrix(1.0,0.0,0.0,1.0,10.0,73.375)"><text id="ProcessOnText1008" fill="#000000" font-size="21" x="93.0" y="21.525" font-family="微软雅黑" font-weight="bold" font-style="normal" text-decoration="none" family="微软雅黑" text-anchor="middle" size="21">Blockchain</text></g></g><g id="ProcessOnG1009" transform="matrix(1.0,0.0,0.0,1.0,197.0,137.0)" opacity="1.0"><path id="ProcessOnPath1010" d="M0.0 0.0L300.0 0.0L300.0 207.0L0.0 207.0Z" stroke="#323232" stroke-width="2.0" stroke-dasharray="none" opacity="1.0" fill="#ffffff"/></g><g id="ProcessOnG1011" transform="matrix(1.0,0.0,0.0,1.0,287.5,151.5)" opacity="1.0"><path id="ProcessOnPath1012" d="M0.0 0.0L113.0 0.0L113.0 25.0L0.0 25.0Z" stroke="none" stroke-width="0.0" stroke-dasharray="none" opacity="1.0" fill="none"/><g id="ProcessOnG1013" transform="matrix(1.0,0.0,0.0,1.0,0.0,1.875)"><text id="ProcessOnText1014" fill="#000000" font-size="17" x="55.5" y="17.425" font-family="微软雅黑" font-weight="bold" font-style="normal" text-decoration="none" family="微软雅黑" text-anchor="middle" size="17">核心供应商</text></g></g><g id="ProcessOnG1015" transform="matrix(1.0,0.0,0.0,1.0,379.0,217.5)" opacity="1.0"><g id="ProcessOnG1017" transform="matrix(1.0,0.0,0.0,1.0,0.0,0.0)"> <path fill="#00BCF2" d="M2.634,74.877c-0.519-0.207-1.155-0.844-1.488-1.49c-0.273-0.531-0.282-0.912-0.244-9.943l0.04-9.391 l0.414-0.626c0.287-0.433,0.649-0.734,1.177-0.981l0.763-0.354l34.151-0.001c25.144-0.001,34.284,0.042,34.652,0.165 c0.751,0.253,1.424,0.813,1.755,1.461c0.29,0.566,0.295,0.81,0.256,10.045l-0.039,9.464l-0.354,0.518 c-0.196,0.285-0.588,0.676-0.872,0.872l-0.518,0.354l-34.663,0.027C14.898,75.015,2.876,74.974,2.634,74.877L2.634,74.877z M8.23,71.768c1.135-0.573,1.675-1.777,1.324-2.949c-0.354-1.184-1.676-2.011-2.858-1.789c-2.444,0.458-2.869,3.767-0.615,4.79 C6.877,72.182,7.438,72.168,8.23,71.768z M69.206,70.838c0.331-0.332,0.285-0.892-0.096-1.158c-0.287-0.2-1.272-0.229-7.766-0.229 c-8.09,0-8.094,0-8.094,0.811c0,0.81-0.005,0.809,8.188,0.809C68.093,71.069,69.001,71.042,69.206,70.838L69.206,70.838z M69.26,67.95c0.097-0.098,0.176-0.35,0.176-0.56c0-0.211-0.079-0.462-0.176-0.56c-0.233-0.233-15.293-0.256-15.725-0.023 c-0.322,0.173-0.389,0.862-0.108,1.143c0.133,0.132,2.093,0.176,7.917,0.176C67.167,68.126,69.126,68.082,69.26,67.95L69.26,67.95z M69.152,65.179c0.322-0.173,0.387-0.863,0.108-1.143c-0.134-0.134-2.093-0.178-7.916-0.178c-5.824,0-7.784,0.044-7.917,0.178 c-0.246,0.247-0.22,0.788,0.055,1.063c0.205,0.203,1.116,0.23,7.808,0.23C66.233,65.33,68.965,65.277,69.152,65.179z M2.561,48.754 c-0.684-0.361-1.117-0.806-1.414-1.448c-0.254-0.552-0.271-1.154-0.271-9.785c0-8.63,0.017-9.233,0.271-9.785 c0.329-0.712,0.795-1.161,1.521-1.464c0.487-0.204,4.218-0.228,34.838-0.228c30.62,0,34.353,0.024,34.839,0.228 c0.694,0.291,1.165,0.731,1.523,1.428c0.271,0.53,0.28,0.923,0.242,10.032c-0.039,9.317-0.045,9.486-0.343,9.887 c-0.167,0.224-0.555,0.608-0.86,0.855l-0.557,0.45l-34.674,0.031C6.273,48.984,2.961,48.966,2.561,48.754L2.561,48.754z M8.446,45.626c1.381-0.778,1.612-2.771,0.457-3.926c-1.604-1.604-4.271-0.492-4.271,1.78C4.631,45.465,6.685,46.62,8.446,45.626 L8.446,45.626z M69.26,44.701c0.247-0.247,0.22-0.789-0.055-1.063c-0.204-0.204-1.112-0.231-7.767-0.231 c-6.58,0-7.576,0.029-7.86,0.229c-0.356,0.249-0.432,0.784-0.151,1.065c0.133,0.134,2.093,0.178,7.917,0.178 C67.167,44.879,69.126,44.835,69.26,44.701L69.26,44.701z M69.26,41.905c0.097-0.097,0.176-0.348,0.176-0.559 s-0.079-0.462-0.176-0.56c-0.134-0.133-2.093-0.177-7.916-0.177c-5.824,0-7.784,0.044-7.917,0.177 c-0.097,0.098-0.177,0.349-0.177,0.56s0.08,0.462,0.177,0.559c0.133,0.134,2.093,0.178,7.917,0.178 C67.167,42.083,69.126,42.039,69.26,41.905z M69.292,38.992c0.239-0.377,0.159-0.856-0.182-1.096 c-0.287-0.199-1.272-0.229-7.766-0.229c-6.496,0-7.481,0.029-7.766,0.229c-0.423,0.296-0.421,0.865,0.004,1.165 c0.293,0.205,1.201,0.228,7.951,0.192C68.117,39.218,69.172,39.183,69.292,38.992L69.292,38.992z M2.561,22.675 c-0.712-0.329-1.161-0.794-1.465-1.521c-0.197-0.472-0.227-1.766-0.224-9.709C0.875,2.85,0.893,2.244,1.147,1.692 C1.476,0.98,1.942,0.531,2.668,0.228C3.156,0.024,6.887,0,37.506,0c30.62,0,34.353,0.024,34.839,0.228 c0.694,0.29,1.165,0.732,1.523,1.428c0.271,0.53,0.28,0.923,0.242,10.029l-0.039,9.477l-0.45,0.565 c-0.248,0.311-0.742,0.714-1.099,0.896l-0.647,0.331L37.512,22.95C4.418,22.947,3.128,22.937,2.561,22.675L2.561,22.675z M8.623,19.438c0.619-0.448,1.077-1.321,1.071-2.042c-0.005-0.601-0.483-1.54-1.01-1.983c-1.161-0.978-3.065-0.568-3.796,0.817 c-0.388,0.736-0.332,1.865,0.129,2.561c0.492,0.743,1.154,1.066,2.194,1.071C7.89,19.864,8.139,19.789,8.623,19.438L8.623,19.438z M69.26,18.657c0.278-0.28,0.214-0.97-0.108-1.143c-0.187-0.099-2.919-0.153-7.862-0.153c-6.691,0-7.603,0.027-7.808,0.231 c-0.274,0.274-0.303,0.816-0.055,1.064C53.683,18.912,69.005,18.912,69.26,18.657z M69.152,15.886 c0.322-0.173,0.387-0.863,0.108-1.143c-0.255-0.254-15.577-0.254-15.833,0c-0.248,0.248-0.22,0.79,0.055,1.063 c0.205,0.205,1.116,0.231,7.808,0.231C66.233,16.038,68.965,15.985,69.152,15.886z M69.26,12.919c0.247-0.248,0.22-0.79-0.055-1.064 c-0.204-0.204-1.112-0.231-7.767-0.231c-6.58,0-7.576,0.029-7.86,0.229c-0.356,0.249-0.432,0.785-0.151,1.066 C53.683,13.173,69.005,13.173,69.26,12.919L69.26,12.919z"/>  </g><g id="ProcessOnG1018" transform="matrix(1.0,0.0,0.0,1.0,-20.0,81.875)"><text id="ProcessOnText1019" fill="#000000" font-size="13" x="56.5" y="13.325" font-family="微软雅黑" font-weight="normal" font-style="normal" text-decoration="none" family="微软雅黑" text-anchor="middle" size="13">共识节点</text></g></g><g id="ProcessOnG1020" transform="matrix(1.0,0.0,0.0,1.0,239.5,218.0)" opacity="1.0"><g id="ProcessOnG1022" transform="matrix(1.0,0.0,0.0,1.0,0.0,0.0)"> <path fill="#00BCF2" d="M12.171,71.513v-2.488l4.199-0.093c8.087-0.18,11.128-1.028,12.413-3.463 c0.395-0.75,0.423-0.929,0.401-2.611c-0.013-1.182-0.123-2.208-0.317-2.98L28.57,58.7l-12.557-0.079l-12.56-0.079l-0.801-0.364 c-0.938-0.422-1.77-1.236-2.287-2.225L0,55.247V29.271V3.297l0.354-0.663c0.555-1.041,1.242-1.72,2.209-2.194L3.453,0h36.274h36.274 l1.019,0.486c1.212,0.576,2.097,1.419,2.606,2.497L80,3.768V29.32v25.553l-0.423,0.87c-0.501,1.016-1.354,1.809-2.559,2.388 l-0.865,0.411L63.25,58.584l-12.91,0.047l-0.235,0.823c-0.698,2.443-0.913,4.854-0.547,6.082c0.735,2.448,4.252,3.432,12.265,3.443 h2.789v2.51V74H38.391H12.165v-2.489L12.171,71.513z M73.881,29.271V6.2h-33.84H6.203v23.071V52.34h33.838h33.842V29.271H73.881z"/>  </g><g id="ProcessOnG1023" transform="matrix(1.0,0.0,0.0,1.0,-20.0,80.875)"><text id="ProcessOnText1024" fill="#000000" font-size="13" x="59.0" y="13.325" font-family="微软雅黑" font-weight="normal" font-style="normal" text-decoration="none" family="微软雅黑" text-anchor="middle" size="13">业务节点</text></g></g><g id="ProcessOnG1025" transform="matrix(1.0,0.0,0.0,1.0,121.0,65.5)" opacity="1.0"><g id="ProcessOnG1027" transform="matrix(1.0,0.0,0.0,1.0,0.0,0.0)"> <path fill="#00BCF2" d="M4.354,0C1.936,0,0,1.936,0,4.357v68.221C0,74.998,1.936,77,4.354,77h43.29C50.063,77,52,74.999,52,72.578 V4.357C52,1.936,50.063,0,47.645,0H4.354z M16.64,4.164H35.36v2.081H16.64V4.164z M4.16,10.406h43.68v54.107H4.16V10.406z M25.87,25.494l-11.309,5.723l11.309,6.763l11.569-6.763L25.87,25.494z M14.561,33.298v12.486l10.399,6.243V39.543L14.561,33.298 L14.561,33.298z M37.439,33.361l-10.401,6.245v12.487l10.401-6.243V33.361L37.439,33.361z M18.719,68.676h14.559v4.164H18.719 V68.676z"/>  </g><g id="ProcessOnG1028" transform="matrix(1.0,0.0,0.0,1.0,-20.0,83.875)"><text id="ProcessOnText1029" fill="#000000" font-size="13" x="45.0" y="13.325" font-family="微软雅黑" font-weight="normal" font-style="normal" text-decoration="none" family="微软雅黑" text-anchor="middle" size="13">Phone</text></g></g><g id="ProcessOnG1030"><path id="ProcessOnPath1031" d="M173.0 104.0L239.5 255.0" stroke="#323232" stroke-width="2.0" stroke-dasharray="none" fill="none"/></g><g id="ProcessOnG1032"><path id="ProcessOnPath1033" d="M319.5 255.0L379.0 255.0" stroke="#323232" stroke-width="2.0" stroke-dasharray="none" fill="none"/></g><g id="ProcessOnG1034" transform="matrix(1.0,0.0,0.0,1.0,115.5,328.0)" opacity="1.0"><g id="ProcessOnG1036" transform="matrix(1.0,0.0,0.0,1.0,0.0,0.0)"> <g id="g12" transform="scale(0.1,0.1)"> <path id="path14" fill="none" stroke="#231F20" stroke-width="4" stroke-miterlimit="10" d="M392.92,56.719 c10.547-17.612,10.498-14.995,14.814-21.406c42.109-63.662,85.02-32.886,55.85,26.245c-24.082,48.896-26.475,52.046-35.908,68.262 c-16.201,28.496-32.715,59.736-44.365,82.476"/> <path id="path16" fill="none" stroke="#231F20" stroke-width="4" stroke-miterlimit="10" d="M434.912,118.921 c42.363-62.813,83.047-33.755,56.777,23.97c-22.305,49.316-28.281,51.27-36.475,68.672c-15.107,32.129-10.449,27.1-21.934,49.766" /> <path id="path18" fill="none" stroke="#231F20" stroke-width="4" stroke-miterlimit="10" d="M349.033,132.822 c11.533-14.795,11.699-17.793,37.842-65.352c32.871-59.688-13.389-88.901-56.328-26.909c-45.4,65.635-56.855,84.37-82.178,113.521 c-25.254,29.102-72.314,142.671-101.963,173.481c-19.717,20.586,8.193-59.858,5.645-83.276 c-5.42-50.947-6.758-45.044-12.573-62.988c-5.913-17.866-42.305-49.663-49.932-22.144c-3.96,14.277-2.144,14.785,0.801,30.986 c1.494,8.311-4.492,5.898-2.749,45.835c0.903,22.559-35.278,89.702-46.23,119.683c-23.242,63.672,2.446,66.924-7.09,119.726 c-10.454,57.959,1.812,45.918-8.652,70.693C15.2,570.844-44.121,666.089-50,681.294"/> <path id="path20" fill="none" stroke="#231F20" stroke-width="4" stroke-miterlimit="10" d="M164.39,355.737 c34.692,19.746,2.617,126.767,2.617,126.767"/> <path id="path22" fill="none" stroke="#231F20" stroke-width="4" stroke-miterlimit="10" d="M147.896,348.11 c-8.184-10.459-8.418-17.275-8.418-17.275"/> <path id="path24" fill="#087EBE" d="M43.242,432.397h265.391L479.17,120.493H226.611L43.242,432.397"/> <path id="path26" fill="none" stroke="#FFFFFF" stroke-width="4" stroke-linecap="round" stroke-linejoin="round" stroke-miterlimit="10" d=" M43.242,432.397h265.391L479.17,120.493H226.611L43.242,432.397z"/> <path id="path28" fill="#087EBE" d="M43.242,484.096h265.391v-51.689H43.242V484.096z"/> <path id="path30" fill="none" stroke="#FFFFFF" stroke-width="4" stroke-linecap="round" stroke-linejoin="round" stroke-miterlimit="10" d=" M43.242,484.096h265.391v-51.689H43.242V484.096z"/> <path id="path32" fill="#087EBE" d="M479.17,120.493v48.379L308.633,484.096v-51.699L479.17,120.493"/> <path id="path34" fill="none" stroke="#FFFFFF" stroke-width="4" stroke-linecap="round" stroke-linejoin="round" stroke-miterlimit="10" d=" M479.17,120.493v48.379L308.633,484.096v-51.699L479.17,120.493z"/> <path id="path36" fill="#FFFFFF" d="M434.521,151.948L322.246,360.571H115.151L236.23,151.948H434.521"/> <path id="path38" fill="none" stroke="#FFFFFF" stroke-width="1.926" stroke-linecap="round" stroke-linejoin="round" stroke-miterlimit="10" d=" M434.521,151.948L322.246,360.571H115.151L236.23,151.948H434.521z"/> <path id="path40" fill="#FFFFFF" d="M125.444,389.517l-12.29,22.725H89.365l13.081-22.725H125.444"/> <path id="path42" fill="none" stroke="#FFFFFF" stroke-width="1.926" stroke-linecap="round" stroke-linejoin="round" stroke-miterlimit="10" d=" M125.444,389.517l-12.29,22.725H89.365l13.081-22.725H125.444z"/> <path id="path44" fill="#FFFFFF" d="M309.111,389.517l-12.451,22.725h-23.672l13.057-22.725H309.111"/> <path id="path46" fill="none" stroke="#FFFFFF" stroke-width="1.926" stroke-linecap="round" stroke-linejoin="round" stroke-miterlimit="10" d=" M309.111,389.517l-12.451,22.725h-23.672l13.057-22.725H309.111z"/> <path id="path48" fill="#FFFFFF" d="M263.301,389.517l-12.461,22.725h-23.672l13.047-22.725H263.301"/> <path id="path50" fill="none" stroke="#FFFFFF" stroke-width="1.926" stroke-linecap="round" stroke-linejoin="round" stroke-miterlimit="10" d=" M263.301,389.517l-12.461,22.725h-23.672l13.047-22.725H263.301z"/> <path id="path52" fill="#FFFFFF" d="M215.313,389.517l-12.363,22.725h-23.76l13.145-22.725H215.313"/> <path id="path54" fill="none" stroke="#FFFFFF" stroke-width="1.926" stroke-linecap="round" stroke-linejoin="round" stroke-miterlimit="10" d=" M215.313,389.517l-12.363,22.725h-23.76l13.145-22.725H215.313z"/> <path id="path56" fill="#FFFFFF" d="M170,389.517l-12.363,22.725h-23.76l13.145-22.725H170"/> <path id="path58" fill="none" stroke="#FFFFFF" stroke-width="1.926" stroke-linecap="round" stroke-linejoin="round" stroke-miterlimit="10" d=" M170,389.517l-12.363,22.725h-23.76l13.145-22.725H170z"/> <path id="path60" fill="#FFFFFF" d="M134.038,769.995c15.073-23.271,87.339-129.697,94.058-131.553 c74.629-20.332,160.02-186.338,199.902-234.648c8.594-10.547,16.074-31.143,19.863-40.742c1.934-4.766,18.77-40.371,28.291-57.119 l14.971-68.33l2.48-60.068c0,0-23.809-56.88-37.422,16.104l-9.678,46.978c-4.424,7.314-20.713,31.318-25.039,41.763 c-4.307,10.435-30.049,42.461-29.922,60.234"/> <path id="path62" fill="none" stroke="#231F20" stroke-width="4" stroke-miterlimit="10" d="M134.038,769.995 c15.073-23.271,87.339-129.697,94.058-131.553c74.629-20.332,160.02-186.338,199.902-234.648 c8.594-10.547,16.074-31.143,19.863-40.742c1.934-4.766,18.77-40.371,28.291-57.119l14.971-68.33l2.48-60.068 c0,0-23.809-56.88-37.422,16.104l-9.678,46.978c-4.424,7.314-20.713,31.318-25.039,41.763 c-4.307,10.435-30.049,42.461-29.922,60.234"/> </g>  </g><g id="ProcessOnG1037" transform="matrix(1.0,0.0,0.0,1.0,-20.0,83.875)"><text id="ProcessOnText1038" fill="#000000" font-size="13" x="46.5" y="13.325" font-family="微软雅黑" font-weight="normal" font-style="normal" text-decoration="none" family="微软雅黑" text-anchor="middle" size="13">PDA</text></g></g><g id="ProcessOnG1039"><path id="ProcessOnPath1040" d="M170.5 366.5L239.5 255.0" stroke="#323232" stroke-width="2.0" stroke-dasharray="none" fill="none"/></g><g id="ProcessOnG1041" transform="matrix(1.0,0.0,0.0,1.0,136.5,475.0)" opacity="1.0"><path id="ProcessOnPath1042" d="M0.0 0.0L355.5 0.0L355.5 302.0L0.0 302.0Z" stroke="#323232" stroke-width="2.0" stroke-dasharray="none" opacity="1.0" fill="#ffffff"/></g><g id="ProcessOnG1043" transform="matrix(1.0,0.0,0.0,1.0,363.0,528.5)" opacity="1.0"><g id="ProcessOnG1045" transform="matrix(1.0,0.0,0.0,1.0,0.0,0.0)"> <path fill="#00BCF2" d="M2.634,74.877c-0.519-0.207-1.155-0.844-1.488-1.49c-0.273-0.531-0.282-0.912-0.244-9.943l0.04-9.391 l0.414-0.626c0.287-0.433,0.649-0.734,1.177-0.981l0.763-0.354l34.151-0.001c25.144-0.001,34.284,0.042,34.652,0.165 c0.751,0.253,1.424,0.813,1.755,1.461c0.29,0.566,0.295,0.81,0.256,10.045l-0.039,9.464l-0.354,0.518 c-0.196,0.285-0.588,0.676-0.872,0.872l-0.518,0.354l-34.663,0.027C14.898,75.015,2.876,74.974,2.634,74.877L2.634,74.877z M8.23,71.768c1.135-0.573,1.675-1.777,1.324-2.949c-0.354-1.184-1.676-2.011-2.858-1.789c-2.444,0.458-2.869,3.767-0.615,4.79 C6.877,72.182,7.438,72.168,8.23,71.768z M69.206,70.838c0.331-0.332,0.285-0.892-0.096-1.158c-0.287-0.2-1.272-0.229-7.766-0.229 c-8.09,0-8.094,0-8.094,0.811c0,0.81-0.005,0.809,8.188,0.809C68.093,71.069,69.001,71.042,69.206,70.838L69.206,70.838z M69.26,67.95c0.097-0.098,0.176-0.35,0.176-0.56c0-0.211-0.079-0.462-0.176-0.56c-0.233-0.233-15.293-0.256-15.725-0.023 c-0.322,0.173-0.389,0.862-0.108,1.143c0.133,0.132,2.093,0.176,7.917,0.176C67.167,68.126,69.126,68.082,69.26,67.95L69.26,67.95z M69.152,65.179c0.322-0.173,0.387-0.863,0.108-1.143c-0.134-0.134-2.093-0.178-7.916-0.178c-5.824,0-7.784,0.044-7.917,0.178 c-0.246,0.247-0.22,0.788,0.055,1.063c0.205,0.203,1.116,0.23,7.808,0.23C66.233,65.33,68.965,65.277,69.152,65.179z M2.561,48.754 c-0.684-0.361-1.117-0.806-1.414-1.448c-0.254-0.552-0.271-1.154-0.271-9.785c0-8.63,0.017-9.233,0.271-9.785 c0.329-0.712,0.795-1.161,1.521-1.464c0.487-0.204,4.218-0.228,34.838-0.228c30.62,0,34.353,0.024,34.839,0.228 c0.694,0.291,1.165,0.731,1.523,1.428c0.271,0.53,0.28,0.923,0.242,10.032c-0.039,9.317-0.045,9.486-0.343,9.887 c-0.167,0.224-0.555,0.608-0.86,0.855l-0.557,0.45l-34.674,0.031C6.273,48.984,2.961,48.966,2.561,48.754L2.561,48.754z M8.446,45.626c1.381-0.778,1.612-2.771,0.457-3.926c-1.604-1.604-4.271-0.492-4.271,1.78C4.631,45.465,6.685,46.62,8.446,45.626 L8.446,45.626z M69.26,44.701c0.247-0.247,0.22-0.789-0.055-1.063c-0.204-0.204-1.112-0.231-7.767-0.231 c-6.58,0-7.576,0.029-7.86,0.229c-0.356,0.249-0.432,0.784-0.151,1.065c0.133,0.134,2.093,0.178,7.917,0.178 C67.167,44.879,69.126,44.835,69.26,44.701L69.26,44.701z M69.26,41.905c0.097-0.097,0.176-0.348,0.176-0.559 s-0.079-0.462-0.176-0.56c-0.134-0.133-2.093-0.177-7.916-0.177c-5.824,0-7.784,0.044-7.917,0.177 c-0.097,0.098-0.177,0.349-0.177,0.56s0.08,0.462,0.177,0.559c0.133,0.134,2.093,0.178,7.917,0.178 C67.167,42.083,69.126,42.039,69.26,41.905z M69.292,38.992c0.239-0.377,0.159-0.856-0.182-1.096 c-0.287-0.199-1.272-0.229-7.766-0.229c-6.496,0-7.481,0.029-7.766,0.229c-0.423,0.296-0.421,0.865,0.004,1.165 c0.293,0.205,1.201,0.228,7.951,0.192C68.117,39.218,69.172,39.183,69.292,38.992L69.292,38.992z M2.561,22.675 c-0.712-0.329-1.161-0.794-1.465-1.521c-0.197-0.472-0.227-1.766-0.224-9.709C0.875,2.85,0.893,2.244,1.147,1.692 C1.476,0.98,1.942,0.531,2.668,0.228C3.156,0.024,6.887,0,37.506,0c30.62,0,34.353,0.024,34.839,0.228 c0.694,0.29,1.165,0.732,1.523,1.428c0.271,0.53,0.28,0.923,0.242,10.029l-0.039,9.477l-0.45,0.565 c-0.248,0.311-0.742,0.714-1.099,0.896l-0.647,0.331L37.512,22.95C4.418,22.947,3.128,22.937,2.561,22.675L2.561,22.675z M8.623,19.438c0.619-0.448,1.077-1.321,1.071-2.042c-0.005-0.601-0.483-1.54-1.01-1.983c-1.161-0.978-3.065-0.568-3.796,0.817 c-0.388,0.736-0.332,1.865,0.129,2.561c0.492,0.743,1.154,1.066,2.194,1.071C7.89,19.864,8.139,19.789,8.623,19.438L8.623,19.438z M69.26,18.657c0.278-0.28,0.214-0.97-0.108-1.143c-0.187-0.099-2.919-0.153-7.862-0.153c-6.691,0-7.603,0.027-7.808,0.231 c-0.274,0.274-0.303,0.816-0.055,1.064C53.683,18.912,69.005,18.912,69.26,18.657z M69.152,15.886 c0.322-0.173,0.387-0.863,0.108-1.143c-0.255-0.254-15.577-0.254-15.833,0c-0.248,0.248-0.22,0.79,0.055,1.063 c0.205,0.205,1.116,0.231,7.808,0.231C66.233,16.038,68.965,15.985,69.152,15.886z M69.26,12.919c0.247-0.248,0.22-0.79-0.055-1.064 c-0.204-0.204-1.112-0.231-7.767-0.231c-6.58,0-7.576,0.029-7.86,0.229c-0.356,0.249-0.432,0.785-0.151,1.066 C53.683,13.173,69.005,13.173,69.26,12.919L69.26,12.919z"/>  </g><g id="ProcessOnG1046" transform="matrix(1.0,0.0,0.0,1.0,-20.0,81.875)"><text id="ProcessOnText1047" fill="#000000" font-size="13" x="56.5" y="13.325" font-family="微软雅黑" font-weight="normal" font-style="normal" text-decoration="none" family="微软雅黑" text-anchor="middle" size="13">共识节点</text></g></g><g id="ProcessOnG1048" transform="matrix(1.0,0.0,0.0,1.0,363.0,672.5)" opacity="1.0"><g id="ProcessOnG1050" transform="matrix(1.0,0.0,0.0,1.0,0.0,0.0)"> <path fill="#00BCF2" d="M2.634,74.877c-0.519-0.207-1.155-0.844-1.488-1.49c-0.273-0.531-0.282-0.912-0.244-9.943l0.04-9.391 l0.414-0.626c0.287-0.433,0.649-0.734,1.177-0.981l0.763-0.354l34.151-0.001c25.144-0.001,34.284,0.042,34.652,0.165 c0.751,0.253,1.424,0.813,1.755,1.461c0.29,0.566,0.295,0.81,0.256,10.045l-0.039,9.464l-0.354,0.518 c-0.196,0.285-0.588,0.676-0.872,0.872l-0.518,0.354l-34.663,0.027C14.898,75.015,2.876,74.974,2.634,74.877L2.634,74.877z M8.23,71.768c1.135-0.573,1.675-1.777,1.324-2.949c-0.354-1.184-1.676-2.011-2.858-1.789c-2.444,0.458-2.869,3.767-0.615,4.79 C6.877,72.182,7.438,72.168,8.23,71.768z M69.206,70.838c0.331-0.332,0.285-0.892-0.096-1.158c-0.287-0.2-1.272-0.229-7.766-0.229 c-8.09,0-8.094,0-8.094,0.811c0,0.81-0.005,0.809,8.188,0.809C68.093,71.069,69.001,71.042,69.206,70.838L69.206,70.838z M69.26,67.95c0.097-0.098,0.176-0.35,0.176-0.56c0-0.211-0.079-0.462-0.176-0.56c-0.233-0.233-15.293-0.256-15.725-0.023 c-0.322,0.173-0.389,0.862-0.108,1.143c0.133,0.132,2.093,0.176,7.917,0.176C67.167,68.126,69.126,68.082,69.26,67.95L69.26,67.95z M69.152,65.179c0.322-0.173,0.387-0.863,0.108-1.143c-0.134-0.134-2.093-0.178-7.916-0.178c-5.824,0-7.784,0.044-7.917,0.178 c-0.246,0.247-0.22,0.788,0.055,1.063c0.205,0.203,1.116,0.23,7.808,0.23C66.233,65.33,68.965,65.277,69.152,65.179z M2.561,48.754 c-0.684-0.361-1.117-0.806-1.414-1.448c-0.254-0.552-0.271-1.154-0.271-9.785c0-8.63,0.017-9.233,0.271-9.785 c0.329-0.712,0.795-1.161,1.521-1.464c0.487-0.204,4.218-0.228,34.838-0.228c30.62,0,34.353,0.024,34.839,0.228 c0.694,0.291,1.165,0.731,1.523,1.428c0.271,0.53,0.28,0.923,0.242,10.032c-0.039,9.317-0.045,9.486-0.343,9.887 c-0.167,0.224-0.555,0.608-0.86,0.855l-0.557,0.45l-34.674,0.031C6.273,48.984,2.961,48.966,2.561,48.754L2.561,48.754z M8.446,45.626c1.381-0.778,1.612-2.771,0.457-3.926c-1.604-1.604-4.271-0.492-4.271,1.78C4.631,45.465,6.685,46.62,8.446,45.626 L8.446,45.626z M69.26,44.701c0.247-0.247,0.22-0.789-0.055-1.063c-0.204-0.204-1.112-0.231-7.767-0.231 c-6.58,0-7.576,0.029-7.86,0.229c-0.356,0.249-0.432,0.784-0.151,1.065c0.133,0.134,2.093,0.178,7.917,0.178 C67.167,44.879,69.126,44.835,69.26,44.701L69.26,44.701z M69.26,41.905c0.097-0.097,0.176-0.348,0.176-0.559 s-0.079-0.462-0.176-0.56c-0.134-0.133-2.093-0.177-7.916-0.177c-5.824,0-7.784,0.044-7.917,0.177 c-0.097,0.098-0.177,0.349-0.177,0.56s0.08,0.462,0.177,0.559c0.133,0.134,2.093,0.178,7.917,0.178 C67.167,42.083,69.126,42.039,69.26,41.905z M69.292,38.992c0.239-0.377,0.159-0.856-0.182-1.096 c-0.287-0.199-1.272-0.229-7.766-0.229c-6.496,0-7.481,0.029-7.766,0.229c-0.423,0.296-0.421,0.865,0.004,1.165 c0.293,0.205,1.201,0.228,7.951,0.192C68.117,39.218,69.172,39.183,69.292,38.992L69.292,38.992z M2.561,22.675 c-0.712-0.329-1.161-0.794-1.465-1.521c-0.197-0.472-0.227-1.766-0.224-9.709C0.875,2.85,0.893,2.244,1.147,1.692 C1.476,0.98,1.942,0.531,2.668,0.228C3.156,0.024,6.887,0,37.506,0c30.62,0,34.353,0.024,34.839,0.228 c0.694,0.29,1.165,0.732,1.523,1.428c0.271,0.53,0.28,0.923,0.242,10.029l-0.039,9.477l-0.45,0.565 c-0.248,0.311-0.742,0.714-1.099,0.896l-0.647,0.331L37.512,22.95C4.418,22.947,3.128,22.937,2.561,22.675L2.561,22.675z M8.623,19.438c0.619-0.448,1.077-1.321,1.071-2.042c-0.005-0.601-0.483-1.54-1.01-1.983c-1.161-0.978-3.065-0.568-3.796,0.817 c-0.388,0.736-0.332,1.865,0.129,2.561c0.492,0.743,1.154,1.066,2.194,1.071C7.89,19.864,8.139,19.789,8.623,19.438L8.623,19.438z M69.26,18.657c0.278-0.28,0.214-0.97-0.108-1.143c-0.187-0.099-2.919-0.153-7.862-0.153c-6.691,0-7.603,0.027-7.808,0.231 c-0.274,0.274-0.303,0.816-0.055,1.064C53.683,18.912,69.005,18.912,69.26,18.657z M69.152,15.886 c0.322-0.173,0.387-0.863,0.108-1.143c-0.255-0.254-15.577-0.254-15.833,0c-0.248,0.248-0.22,0.79,0.055,1.063 c0.205,0.205,1.116,0.231,7.808,0.231C66.233,16.038,68.965,15.985,69.152,15.886z M69.26,12.919c0.247-0.248,0.22-0.79-0.055-1.064 c-0.204-0.204-1.112-0.231-7.767-0.231c-6.58,0-7.576,0.029-7.86,0.229c-0.356,0.249-0.432,0.785-0.151,1.066 C53.683,13.173,69.005,13.173,69.26,12.919L69.26,12.919z"/>  </g><g id="ProcessOnG1051" transform="matrix(1.0,0.0,0.0,1.0,-20.0,81.875)"><text id="ProcessOnText1052" fill="#000000" font-size="13" x="56.5" y="13.325" font-family="微软雅黑" font-weight="normal" font-style="normal" text-decoration="none" family="微软雅黑" text-anchor="middle" size="13">共识节点</text></g></g><g id="ProcessOnG1053"><path id="ProcessOnPath1054" d="M454.0 255.0L513.36 361.56999999999994" stroke="#323232" stroke-width="2.0" stroke-dasharray="none" fill="none"/></g><g id="ProcessOnG1055"><path id="ProcessOnPath1056" d="M438.0 710.0L517.52 501.70000000000005" stroke="#323232" stroke-width="2.0" stroke-dasharray="none" fill="none"/></g><g id="ProcessOnG1057"><path id="ProcessOnPath1058" d="M438.0 566.0L517.52 501.70000000000005" stroke="#323232" stroke-width="2.0" stroke-dasharray="none" fill="none"/></g><g id="ProcessOnG1059" transform="matrix(1.0,0.0,0.0,1.0,208.0,532.0)" opacity="1.0"><g id="ProcessOnG1061" transform="matrix(1.0,0.0,0.0,1.0,0.0,0.0)"> <path fill="#00BCF2" d="M12.171,71.513v-2.488l4.199-0.093c8.087-0.18,11.128-1.028,12.413-3.463 c0.395-0.75,0.423-0.929,0.401-2.611c-0.013-1.182-0.123-2.208-0.317-2.98L28.57,58.7l-12.557-0.079l-12.56-0.079l-0.801-0.364 c-0.938-0.422-1.77-1.236-2.287-2.225L0,55.247V29.271V3.297l0.354-0.663c0.555-1.041,1.242-1.72,2.209-2.194L3.453,0h36.274h36.274 l1.019,0.486c1.212,0.576,2.097,1.419,2.606,2.497L80,3.768V29.32v25.553l-0.423,0.87c-0.501,1.016-1.354,1.809-2.559,2.388 l-0.865,0.411L63.25,58.584l-12.91,0.047l-0.235,0.823c-0.698,2.443-0.913,4.854-0.547,6.082c0.735,2.448,4.252,3.432,12.265,3.443 h2.789v2.51V74H38.391H12.165v-2.489L12.171,71.513z M73.881,29.271V6.2h-33.84H6.203v23.071V52.34h33.838h33.842V29.271H73.881z"/>  </g><g id="ProcessOnG1062" transform="matrix(1.0,0.0,0.0,1.0,-20.0,80.875)"><text id="ProcessOnText1063" fill="#000000" font-size="13" x="59.0" y="13.325" font-family="微软雅黑" font-weight="normal" font-style="normal" text-decoration="none" family="微软雅黑" text-anchor="middle" size="13">业务节点</text></g></g><g id="ProcessOnG1064" transform="matrix(1.0,0.0,0.0,1.0,208.0,666.0)" opacity="1.0"><g id="ProcessOnG1066" transform="matrix(1.0,0.0,0.0,1.0,0.0,0.0)"> <path fill="#00BCF2" d="M12.171,71.513v-2.488l4.199-0.093c8.087-0.18,11.128-1.028,12.413-3.463 c0.395-0.75,0.423-0.929,0.401-2.611c-0.013-1.182-0.123-2.208-0.317-2.98L28.57,58.7l-12.557-0.079l-12.56-0.079l-0.801-0.364 c-0.938-0.422-1.77-1.236-2.287-2.225L0,55.247V29.271V3.297l0.354-0.663c0.555-1.041,1.242-1.72,2.209-2.194L3.453,0h36.274h36.274 l1.019,0.486c1.212,0.576,2.097,1.419,2.606,2.497L80,3.768V29.32v25.553l-0.423,0.87c-0.501,1.016-1.354,1.809-2.559,2.388 l-0.865,0.411L63.25,58.584l-12.91,0.047l-0.235,0.823c-0.698,2.443-0.913,4.854-0.547,6.082c0.735,2.448,4.252,3.432,12.265,3.443 h2.789v2.51V74H38.391H12.165v-2.489L12.171,71.513z M73.881,29.271V6.2h-33.84H6.203v23.071V52.34h33.838h33.842V29.271H73.881z"/>  </g><g id="ProcessOnG1067" transform="matrix(1.0,0.0,0.0,1.0,-20.0,80.875)"><text id="ProcessOnText1068" fill="#000000" font-size="13" x="59.0" y="13.325" font-family="微软雅黑" font-weight="normal" font-style="normal" text-decoration="none" family="微软雅黑" text-anchor="middle" size="13">业务节点</text></g></g><g id="ProcessOnG1069"><path id="ProcessOnPath1070" d="M288.0 569.0L363.0 566.0" stroke="#323232" stroke-width="2.0" stroke-dasharray="none" fill="none"/></g><g id="ProcessOnG1071"><path id="ProcessOnPath1072" d="M288.0 569.0L363.0 710.0" stroke="#323232" stroke-width="2.0" stroke-dasharray="none" fill="none"/></g><g id="ProcessOnG1073"><path id="ProcessOnPath1074" d="M288.0 703.0L363.0 566.0" stroke="#323232" stroke-width="2.0" stroke-dasharray="none" fill="none"/></g><g id="ProcessOnG1075"><path id="ProcessOnPath1076" d="M288.0 703.0L363.0 710.0" stroke="#323232" stroke-width="2.0" stroke-dasharray="none" fill="none"/></g><g id="ProcessOnG1077" transform="matrix(1.0,0.0,0.0,1.0,71.5,497.5)" opacity="1.0"><g id="ProcessOnG1079" transform="matrix(1.0,0.0,0.0,1.0,0.0,0.0)"> <g id="g12" transform="scale(0.1,0.1)"> <path id="path14" fill="none" stroke="#231F20" stroke-width="4" stroke-miterlimit="10" d="M392.92,56.719 c10.547-17.612,10.498-14.995,14.814-21.406c42.109-63.662,85.02-32.886,55.85,26.245c-24.082,48.896-26.475,52.046-35.908,68.262 c-16.201,28.496-32.715,59.736-44.365,82.476"/> <path id="path16" fill="none" stroke="#231F20" stroke-width="4" stroke-miterlimit="10" d="M434.912,118.921 c42.363-62.813,83.047-33.755,56.777,23.97c-22.305,49.316-28.281,51.27-36.475,68.672c-15.107,32.129-10.449,27.1-21.934,49.766" /> <path id="path18" fill="none" stroke="#231F20" stroke-width="4" stroke-miterlimit="10" d="M349.033,132.822 c11.533-14.795,11.699-17.793,37.842-65.352c32.871-59.688-13.389-88.901-56.328-26.909c-45.4,65.635-56.855,84.37-82.178,113.521 c-25.254,29.102-72.314,142.671-101.963,173.481c-19.717,20.586,8.193-59.858,5.645-83.276 c-5.42-50.947-6.758-45.044-12.573-62.988c-5.913-17.866-42.305-49.663-49.932-22.144c-3.96,14.277-2.144,14.785,0.801,30.986 c1.494,8.311-4.492,5.898-2.749,45.835c0.903,22.559-35.278,89.702-46.23,119.683c-23.242,63.672,2.446,66.924-7.09,119.726 c-10.454,57.959,1.812,45.918-8.652,70.693C15.2,570.844-44.121,666.089-50,681.294"/> <path id="path20" fill="none" stroke="#231F20" stroke-width="4" stroke-miterlimit="10" d="M164.39,355.737 c34.692,19.746,2.617,126.767,2.617,126.767"/> <path id="path22" fill="none" stroke="#231F20" stroke-width="4" stroke-miterlimit="10" d="M147.896,348.11 c-8.184-10.459-8.418-17.275-8.418-17.275"/> <path id="path24" fill="#087EBE" d="M43.242,432.397h265.391L479.17,120.493H226.611L43.242,432.397"/> <path id="path26" fill="none" stroke="#FFFFFF" stroke-width="4" stroke-linecap="round" stroke-linejoin="round" stroke-miterlimit="10" d=" M43.242,432.397h265.391L479.17,120.493H226.611L43.242,432.397z"/> <path id="path28" fill="#087EBE" d="M43.242,484.096h265.391v-51.689H43.242V484.096z"/> <path id="path30" fill="none" stroke="#FFFFFF" stroke-width="4" stroke-linecap="round" stroke-linejoin="round" stroke-miterlimit="10" d=" M43.242,484.096h265.391v-51.689H43.242V484.096z"/> <path id="path32" fill="#087EBE" d="M479.17,120.493v48.379L308.633,484.096v-51.699L479.17,120.493"/> <path id="path34" fill="none" stroke="#FFFFFF" stroke-width="4" stroke-linecap="round" stroke-linejoin="round" stroke-miterlimit="10" d=" M479.17,120.493v48.379L308.633,484.096v-51.699L479.17,120.493z"/> <path id="path36" fill="#FFFFFF" d="M434.521,151.948L322.246,360.571H115.151L236.23,151.948H434.521"/> <path id="path38" fill="none" stroke="#FFFFFF" stroke-width="1.926" stroke-linecap="round" stroke-linejoin="round" stroke-miterlimit="10" d=" M434.521,151.948L322.246,360.571H115.151L236.23,151.948H434.521z"/> <path id="path40" fill="#FFFFFF" d="M125.444,389.517l-12.29,22.725H89.365l13.081-22.725H125.444"/> <path id="path42" fill="none" stroke="#FFFFFF" stroke-width="1.926" stroke-linecap="round" stroke-linejoin="round" stroke-miterlimit="10" d=" M125.444,389.517l-12.29,22.725H89.365l13.081-22.725H125.444z"/> <path id="path44" fill="#FFFFFF" d="M309.111,389.517l-12.451,22.725h-23.672l13.057-22.725H309.111"/> <path id="path46" fill="none" stroke="#FFFFFF" stroke-width="1.926" stroke-linecap="round" stroke-linejoin="round" stroke-miterlimit="10" d=" M309.111,389.517l-12.451,22.725h-23.672l13.057-22.725H309.111z"/> <path id="path48" fill="#FFFFFF" d="M263.301,389.517l-12.461,22.725h-23.672l13.047-22.725H263.301"/> <path id="path50" fill="none" stroke="#FFFFFF" stroke-width="1.926" stroke-linecap="round" stroke-linejoin="round" stroke-miterlimit="10" d=" M263.301,389.517l-12.461,22.725h-23.672l13.047-22.725H263.301z"/> <path id="path52" fill="#FFFFFF" d="M215.313,389.517l-12.363,22.725h-23.76l13.145-22.725H215.313"/> <path id="path54" fill="none" stroke="#FFFFFF" stroke-width="1.926" stroke-linecap="round" stroke-linejoin="round" stroke-miterlimit="10" d=" M215.313,389.517l-12.363,22.725h-23.76l13.145-22.725H215.313z"/> <path id="path56" fill="#FFFFFF" d="M170,389.517l-12.363,22.725h-23.76l13.145-22.725H170"/> <path id="path58" fill="none" stroke="#FFFFFF" stroke-width="1.926" stroke-linecap="round" stroke-linejoin="round" stroke-miterlimit="10" d=" M170,389.517l-12.363,22.725h-23.76l13.145-22.725H170z"/> <path id="path60" fill="#FFFFFF" d="M134.038,769.995c15.073-23.271,87.339-129.697,94.058-131.553 c74.629-20.332,160.02-186.338,199.902-234.648c8.594-10.547,16.074-31.143,19.863-40.742c1.934-4.766,18.77-40.371,28.291-57.119 l14.971-68.33l2.48-60.068c0,0-23.809-56.88-37.422,16.104l-9.678,46.978c-4.424,7.314-20.713,31.318-25.039,41.763 c-4.307,10.435-30.049,42.461-29.922,60.234"/> <path id="path62" fill="none" stroke="#231F20" stroke-width="4" stroke-miterlimit="10" d="M134.038,769.995 c15.073-23.271,87.339-129.697,94.058-131.553c74.629-20.332,160.02-186.338,199.902-234.648 c8.594-10.547,16.074-31.143,19.863-40.742c1.934-4.766,18.77-40.371,28.291-57.119l14.971-68.33l2.48-60.068 c0,0-23.809-56.88-37.422,16.104l-9.678,46.978c-4.424,7.314-20.713,31.318-25.039,41.763 c-4.307,10.435-30.049,42.461-29.922,60.234"/> </g>  </g><g id="ProcessOnG1080" transform="matrix(1.0,0.0,0.0,1.0,-20.0,83.875)"><text id="ProcessOnText1081" fill="#000000" font-size="13" x="46.5" y="13.325" font-family="微软雅黑" font-weight="normal" font-style="normal" text-decoration="none" family="微软雅黑" text-anchor="middle" size="13">PDA</text></g></g><g id="ProcessOnG1082"><path id="ProcessOnPath1083" d="M126.5 536.0L208.0 569.0" stroke="#323232" stroke-width="2.0" stroke-dasharray="none" fill="none"/></g><g id="ProcessOnG1084" transform="matrix(1.0,0.0,0.0,1.0,71.5,664.0)" opacity="1.0"><g id="ProcessOnG1086" transform="matrix(1.0,0.0,0.0,1.0,0.0,0.0)"> <g> <path fill="#31333D" d="M40,69.126C40,72.961,36.805,76,32.876,76H7.119C3.202,76,0,72.879,0,69.126V6.885C0,3.121,3.202,0,7.119,0 h25.757C36.805,0,40,3.121,40,6.885V69.126z"/> <rect x="2.56" y="10.719" fill="#FFFFFF" width="34.877" height="56.163"/> <g> <path fill="#DDDDDD" d="M15.042,5.201c0.489,0,0.877,0.391,0.877,0.877c0,0.486-0.389,0.88-0.877,0.88 c-0.487,0-0.884-0.394-0.884-0.88C14.158,5.592,14.555,5.201,15.042,5.201z"/> <path fill="#164C6D" d="M15.042,5.843c0.129,0,0.235,0.107,0.235,0.235c0,0.138-0.106,0.244-0.235,0.244 c-0.138,0-0.244-0.106-0.244-0.244C14.798,5.95,14.904,5.843,15.042,5.843z"/> <path fill="#DDDDDD" d="M25.833,6.323c0,0.154-0.082,0.235-0.229,0.235h-8c-0.163,0-0.244-0.082-0.244-0.235V6.079 c0-0.159,0.081-0.235,0.244-0.235h8.081c0.15,0,0.232,0.077,0.232,0.235v0.244H25.833z"/> </g> <path fill="#DDDDDD" d="M19.999,68.167c1.765,0,3.202,1.419,3.202,3.196c0,1.77-1.438,3.188-3.202,3.188 c-1.764,0-3.202-1.418-3.202-3.188C16.797,69.586,18.235,68.167,19.999,68.167z"/> </g>  </g><g id="ProcessOnG1087" transform="matrix(1.0,0.0,0.0,1.0,-20.0,82.875)"><text id="ProcessOnText1088" fill="#000000" font-size="13" x="39.0" y="13.325" font-family="微软雅黑" font-weight="normal" font-style="normal" text-decoration="none" family="微软雅黑" text-anchor="middle" size="13">Phone</text></g></g><g id="ProcessOnG1089"><path id="ProcessOnPath1090" d="M111.5 702.0L208.0 703.0" stroke="#323232" stroke-width="2.0" stroke-dasharray="none" fill="none"/></g><g id="ProcessOnG1091" transform="matrix(1.0,0.0,0.0,1.0,631.5,118.5)" opacity="1.0"><path id="ProcessOnPath1092" d="M0.0 0.0L344.0 0.0L344.0 207.0L0.0 207.0Z" stroke="#323232" stroke-width="2.0" stroke-dasharray="none" opacity="1.0" fill="#ffffff"/></g><g id="ProcessOnG1093" transform="matrix(1.0,0.0,0.0,1.0,663.0,190.5)" opacity="1.0"><g id="ProcessOnG1095" transform="matrix(1.0,0.0,0.0,1.0,0.0,0.0)"> <path fill="#00BCF2" d="M2.634,74.877c-0.519-0.207-1.155-0.844-1.488-1.49c-0.273-0.531-0.282-0.912-0.244-9.943l0.04-9.391 l0.414-0.626c0.287-0.433,0.649-0.734,1.177-0.981l0.763-0.354l34.151-0.001c25.144-0.001,34.284,0.042,34.652,0.165 c0.751,0.253,1.424,0.813,1.755,1.461c0.29,0.566,0.295,0.81,0.256,10.045l-0.039,9.464l-0.354,0.518 c-0.196,0.285-0.588,0.676-0.872,0.872l-0.518,0.354l-34.663,0.027C14.898,75.015,2.876,74.974,2.634,74.877L2.634,74.877z M8.23,71.768c1.135-0.573,1.675-1.777,1.324-2.949c-0.354-1.184-1.676-2.011-2.858-1.789c-2.444,0.458-2.869,3.767-0.615,4.79 C6.877,72.182,7.438,72.168,8.23,71.768z M69.206,70.838c0.331-0.332,0.285-0.892-0.096-1.158c-0.287-0.2-1.272-0.229-7.766-0.229 c-8.09,0-8.094,0-8.094,0.811c0,0.81-0.005,0.809,8.188,0.809C68.093,71.069,69.001,71.042,69.206,70.838L69.206,70.838z M69.26,67.95c0.097-0.098,0.176-0.35,0.176-0.56c0-0.211-0.079-0.462-0.176-0.56c-0.233-0.233-15.293-0.256-15.725-0.023 c-0.322,0.173-0.389,0.862-0.108,1.143c0.133,0.132,2.093,0.176,7.917,0.176C67.167,68.126,69.126,68.082,69.26,67.95L69.26,67.95z M69.152,65.179c0.322-0.173,0.387-0.863,0.108-1.143c-0.134-0.134-2.093-0.178-7.916-0.178c-5.824,0-7.784,0.044-7.917,0.178 c-0.246,0.247-0.22,0.788,0.055,1.063c0.205,0.203,1.116,0.23,7.808,0.23C66.233,65.33,68.965,65.277,69.152,65.179z M2.561,48.754 c-0.684-0.361-1.117-0.806-1.414-1.448c-0.254-0.552-0.271-1.154-0.271-9.785c0-8.63,0.017-9.233,0.271-9.785 c0.329-0.712,0.795-1.161,1.521-1.464c0.487-0.204,4.218-0.228,34.838-0.228c30.62,0,34.353,0.024,34.839,0.228 c0.694,0.291,1.165,0.731,1.523,1.428c0.271,0.53,0.28,0.923,0.242,10.032c-0.039,9.317-0.045,9.486-0.343,9.887 c-0.167,0.224-0.555,0.608-0.86,0.855l-0.557,0.45l-34.674,0.031C6.273,48.984,2.961,48.966,2.561,48.754L2.561,48.754z M8.446,45.626c1.381-0.778,1.612-2.771,0.457-3.926c-1.604-1.604-4.271-0.492-4.271,1.78C4.631,45.465,6.685,46.62,8.446,45.626 L8.446,45.626z M69.26,44.701c0.247-0.247,0.22-0.789-0.055-1.063c-0.204-0.204-1.112-0.231-7.767-0.231 c-6.58,0-7.576,0.029-7.86,0.229c-0.356,0.249-0.432,0.784-0.151,1.065c0.133,0.134,2.093,0.178,7.917,0.178 C67.167,44.879,69.126,44.835,69.26,44.701L69.26,44.701z M69.26,41.905c0.097-0.097,0.176-0.348,0.176-0.559 s-0.079-0.462-0.176-0.56c-0.134-0.133-2.093-0.177-7.916-0.177c-5.824,0-7.784,0.044-7.917,0.177 c-0.097,0.098-0.177,0.349-0.177,0.56s0.08,0.462,0.177,0.559c0.133,0.134,2.093,0.178,7.917,0.178 C67.167,42.083,69.126,42.039,69.26,41.905z M69.292,38.992c0.239-0.377,0.159-0.856-0.182-1.096 c-0.287-0.199-1.272-0.229-7.766-0.229c-6.496,0-7.481,0.029-7.766,0.229c-0.423,0.296-0.421,0.865,0.004,1.165 c0.293,0.205,1.201,0.228,7.951,0.192C68.117,39.218,69.172,39.183,69.292,38.992L69.292,38.992z M2.561,22.675 c-0.712-0.329-1.161-0.794-1.465-1.521c-0.197-0.472-0.227-1.766-0.224-9.709C0.875,2.85,0.893,2.244,1.147,1.692 C1.476,0.98,1.942,0.531,2.668,0.228C3.156,0.024,6.887,0,37.506,0c30.62,0,34.353,0.024,34.839,0.228 c0.694,0.29,1.165,0.732,1.523,1.428c0.271,0.53,0.28,0.923,0.242,10.029l-0.039,9.477l-0.45,0.565 c-0.248,0.311-0.742,0.714-1.099,0.896l-0.647,0.331L37.512,22.95C4.418,22.947,3.128,22.937,2.561,22.675L2.561,22.675z M8.623,19.438c0.619-0.448,1.077-1.321,1.071-2.042c-0.005-0.601-0.483-1.54-1.01-1.983c-1.161-0.978-3.065-0.568-3.796,0.817 c-0.388,0.736-0.332,1.865,0.129,2.561c0.492,0.743,1.154,1.066,2.194,1.071C7.89,19.864,8.139,19.789,8.623,19.438L8.623,19.438z M69.26,18.657c0.278-0.28,0.214-0.97-0.108-1.143c-0.187-0.099-2.919-0.153-7.862-0.153c-6.691,0-7.603,0.027-7.808,0.231 c-0.274,0.274-0.303,0.816-0.055,1.064C53.683,18.912,69.005,18.912,69.26,18.657z M69.152,15.886 c0.322-0.173,0.387-0.863,0.108-1.143c-0.255-0.254-15.577-0.254-15.833,0c-0.248,0.248-0.22,0.79,0.055,1.063 c0.205,0.205,1.116,0.231,7.808,0.231C66.233,16.038,68.965,15.985,69.152,15.886z M69.26,12.919c0.247-0.248,0.22-0.79-0.055-1.064 c-0.204-0.204-1.112-0.231-7.767-0.231c-6.58,0-7.576,0.029-7.86,0.229c-0.356,0.249-0.432,0.785-0.151,1.066 C53.683,13.173,69.005,13.173,69.26,12.919L69.26,12.919z"/>  </g><g id="ProcessOnG1096" transform="matrix(1.0,0.0,0.0,1.0,-20.0,81.875)"><text id="ProcessOnText1097" fill="#000000" font-size="13" x="56.5" y="13.325" font-family="微软雅黑" font-weight="normal" font-style="normal" text-decoration="none" family="微软雅黑" text-anchor="middle" size="13">共识节点</text></g></g><g id="ProcessOnG1098"><path id="ProcessOnPath1099" d="M602.8 347.73L663.0 228.0" stroke="#323232" stroke-width="2.0" stroke-dasharray="none" fill="none"/></g><g id="ProcessOnG1100" transform="matrix(1.0,0.0,0.0,1.0,734.5,124.5)" opacity="1.0"><path id="ProcessOnPath1101" d="M0.0 0.0L160.0 0.0L160.0 40.0L0.0 40.0Z" stroke="none" stroke-width="0.0" stroke-dasharray="none" opacity="1.0" fill="none"/><g id="ProcessOnG1102" transform="matrix(1.0,0.0,0.0,1.0,0.0,9.375)"><text id="ProcessOnText1103" fill="#000000" font-size="17" x="79.0" y="17.425" font-family="微软雅黑" font-weight="bold" font-style="normal" text-decoration="none" family="微软雅黑" text-anchor="middle" size="17">监管机构</text></g></g><g id="ProcessOnG1104" transform="matrix(1.0,0.0,0.0,1.0,237.0,495.0)" opacity="1.0"><path id="ProcessOnPath1105" d="M0.0 0.0L147.0 0.0L147.0 20.0L0.0 20.0Z" stroke="none" stroke-width="0.0" stroke-dasharray="none" opacity="1.0" fill="none"/><g id="ProcessOnG1106" transform="matrix(1.0,0.0,0.0,1.0,0.0,-0.625)"><text id="ProcessOnText1107" fill="#000000" font-size="17" x="72.5" y="17.425" font-family="微软雅黑" font-weight="bold" font-style="normal" text-decoration="none" family="微软雅黑" text-anchor="middle" size="17">永辉</text></g></g><g id="ProcessOnG1108" transform="matrix(1.0,0.0,0.0,1.0,662.0,519.0)" opacity="1.0"><path id="ProcessOnPath1109" d="M0.0 0.0L241.0 0.0L241.0 229.5L0.0 229.5Z" stroke="#323232" stroke-width="2.0" stroke-dasharray="none" opacity="1.0" fill="#ffffff"/></g><g id="ProcessOnG1110" transform="matrix(1.0,0.0,0.0,1.0,737.0,614.5)" opacity="1.0"><g id="ProcessOnG1112" transform="matrix(1.0,0.0,0.0,1.0,0.0,0.0)"> <path fill="#00BCF2" d="M12.171,71.513v-2.488l4.199-0.093c8.087-0.18,11.128-1.028,12.413-3.463 c0.395-0.75,0.423-0.929,0.401-2.611c-0.013-1.182-0.123-2.208-0.317-2.98L28.57,58.7l-12.557-0.079l-12.56-0.079l-0.801-0.364 c-0.938-0.422-1.77-1.236-2.287-2.225L0,55.247V29.271V3.297l0.354-0.663c0.555-1.041,1.242-1.72,2.209-2.194L3.453,0h36.274h36.274 l1.019,0.486c1.212,0.576,2.097,1.419,2.606,2.497L80,3.768V29.32v25.553l-0.423,0.87c-0.501,1.016-1.354,1.809-2.559,2.388 l-0.865,0.411L63.25,58.584l-12.91,0.047l-0.235,0.823c-0.698,2.443-0.913,4.854-0.547,6.082c0.735,2.448,4.252,3.432,12.265,3.443 h2.789v2.51V74H38.391H12.165v-2.489L12.171,71.513z M73.881,29.271V6.2h-33.84H6.203v23.071V52.34h33.838h33.842V29.271H73.881z"/>  </g><g id="ProcessOnG1113" transform="matrix(1.0,0.0,0.0,1.0,-20.0,80.875)"><text id="ProcessOnText1114" fill="#000000" font-size="13" x="59.0" y="13.325" font-family="微软雅黑" font-weight="normal" font-style="normal" text-decoration="none" family="微软雅黑" text-anchor="middle" size="13">业务节点</text></g></g><g id="ProcessOnG1115"><path id="ProcessOnPath1116" d="M438.0 710.0L737.0 651.5" stroke="#323232" stroke-width="2.0" stroke-dasharray="none" fill="none"/></g><g id="ProcessOnG1117" transform="matrix(1.0,0.0,0.0,1.0,712.0,529.5)" opacity="1.0"><path id="ProcessOnPath1118" d="M0.0 0.0L148.0 0.0L148.0 27.0L0.0 27.0Z" stroke="none" stroke-width="0.0" stroke-dasharray="none" opacity="1.0" fill="none"/><g id="ProcessOnG1119" transform="matrix(1.0,0.0,0.0,1.0,0.0,2.875)"><text id="ProcessOnText1120" fill="#000000" font-size="17" x="73.0" y="17.425" font-family="微软雅黑" font-weight="bold" font-style="normal" text-decoration="none" family="微软雅黑" text-anchor="middle" size="17">普通供应商</text></g></g><g id="ProcessOnG1121" transform="matrix(1.0,0.0,0.0,1.0,920.5,629.5)" opacity="1.0"><g id="ProcessOnG1123" transform="matrix(1.0,0.0,0.0,1.0,0.0,0.0)"> <g id="g12" transform="scale(0.1,0.1)"> <path id="path14" fill="none" stroke="#231F20" stroke-width="4" stroke-miterlimit="10" d="M392.92,56.719 c10.547-17.612,10.498-14.995,14.814-21.406c42.109-63.662,85.02-32.886,55.85,26.245c-24.082,48.896-26.475,52.046-35.908,68.262 c-16.201,28.496-32.715,59.736-44.365,82.476"/> <path id="path16" fill="none" stroke="#231F20" stroke-width="4" stroke-miterlimit="10" d="M434.912,118.921 c42.363-62.813,83.047-33.755,56.777,23.97c-22.305,49.316-28.281,51.27-36.475,68.672c-15.107,32.129-10.449,27.1-21.934,49.766" /> <path id="path18" fill="none" stroke="#231F20" stroke-width="4" stroke-miterlimit="10" d="M349.033,132.822 c11.533-14.795,11.699-17.793,37.842-65.352c32.871-59.688-13.389-88.901-56.328-26.909c-45.4,65.635-56.855,84.37-82.178,113.521 c-25.254,29.102-72.314,142.671-101.963,173.481c-19.717,20.586,8.193-59.858,5.645-83.276 c-5.42-50.947-6.758-45.044-12.573-62.988c-5.913-17.866-42.305-49.663-49.932-22.144c-3.96,14.277-2.144,14.785,0.801,30.986 c1.494,8.311-4.492,5.898-2.749,45.835c0.903,22.559-35.278,89.702-46.23,119.683c-23.242,63.672,2.446,66.924-7.09,119.726 c-10.454,57.959,1.812,45.918-8.652,70.693C15.2,570.844-44.121,666.089-50,681.294"/> <path id="path20" fill="none" stroke="#231F20" stroke-width="4" stroke-miterlimit="10" d="M164.39,355.737 c34.692,19.746,2.617,126.767,2.617,126.767"/> <path id="path22" fill="none" stroke="#231F20" stroke-width="4" stroke-miterlimit="10" d="M147.896,348.11 c-8.184-10.459-8.418-17.275-8.418-17.275"/> <path id="path24" fill="#087EBE" d="M43.242,432.397h265.391L479.17,120.493H226.611L43.242,432.397"/> <path id="path26" fill="none" stroke="#FFFFFF" stroke-width="4" stroke-linecap="round" stroke-linejoin="round" stroke-miterlimit="10" d=" M43.242,432.397h265.391L479.17,120.493H226.611L43.242,432.397z"/> <path id="path28" fill="#087EBE" d="M43.242,484.096h265.391v-51.689H43.242V484.096z"/> <path id="path30" fill="none" stroke="#FFFFFF" stroke-width="4" stroke-linecap="round" stroke-linejoin="round" stroke-miterlimit="10" d=" M43.242,484.096h265.391v-51.689H43.242V484.096z"/> <path id="path32" fill="#087EBE" d="M479.17,120.493v48.379L308.633,484.096v-51.699L479.17,120.493"/> <path id="path34" fill="none" stroke="#FFFFFF" stroke-width="4" stroke-linecap="round" stroke-linejoin="round" stroke-miterlimit="10" d=" M479.17,120.493v48.379L308.633,484.096v-51.699L479.17,120.493z"/> <path id="path36" fill="#FFFFFF" d="M434.521,151.948L322.246,360.571H115.151L236.23,151.948H434.521"/> <path id="path38" fill="none" stroke="#FFFFFF" stroke-width="1.926" stroke-linecap="round" stroke-linejoin="round" stroke-miterlimit="10" d=" M434.521,151.948L322.246,360.571H115.151L236.23,151.948H434.521z"/> <path id="path40" fill="#FFFFFF" d="M125.444,389.517l-12.29,22.725H89.365l13.081-22.725H125.444"/> <path id="path42" fill="none" stroke="#FFFFFF" stroke-width="1.926" stroke-linecap="round" stroke-linejoin="round" stroke-miterlimit="10" d=" M125.444,389.517l-12.29,22.725H89.365l13.081-22.725H125.444z"/> <path id="path44" fill="#FFFFFF" d="M309.111,389.517l-12.451,22.725h-23.672l13.057-22.725H309.111"/> <path id="path46" fill="none" stroke="#FFFFFF" stroke-width="1.926" stroke-linecap="round" stroke-linejoin="round" stroke-miterlimit="10" d=" M309.111,389.517l-12.451,22.725h-23.672l13.057-22.725H309.111z"/> <path id="path48" fill="#FFFFFF" d="M263.301,389.517l-12.461,22.725h-23.672l13.047-22.725H263.301"/> <path id="path50" fill="none" stroke="#FFFFFF" stroke-width="1.926" stroke-linecap="round" stroke-linejoin="round" stroke-miterlimit="10" d=" M263.301,389.517l-12.461,22.725h-23.672l13.047-22.725H263.301z"/> <path id="path52" fill="#FFFFFF" d="M215.313,389.517l-12.363,22.725h-23.76l13.145-22.725H215.313"/> <path id="path54" fill="none" stroke="#FFFFFF" stroke-width="1.926" stroke-linecap="round" stroke-linejoin="round" stroke-miterlimit="10" d=" M215.313,389.517l-12.363,22.725h-23.76l13.145-22.725H215.313z"/> <path id="path56" fill="#FFFFFF" d="M170,389.517l-12.363,22.725h-23.76l13.145-22.725H170"/> <path id="path58" fill="none" stroke="#FFFFFF" stroke-width="1.926" stroke-linecap="round" stroke-linejoin="round" stroke-miterlimit="10" d=" M170,389.517l-12.363,22.725h-23.76l13.145-22.725H170z"/> <path id="path60" fill="#FFFFFF" d="M134.038,769.995c15.073-23.271,87.339-129.697,94.058-131.553 c74.629-20.332,160.02-186.338,199.902-234.648c8.594-10.547,16.074-31.143,19.863-40.742c1.934-4.766,18.77-40.371,28.291-57.119 l14.971-68.33l2.48-60.068c0,0-23.809-56.88-37.422,16.104l-9.678,46.978c-4.424,7.314-20.713,31.318-25.039,41.763 c-4.307,10.435-30.049,42.461-29.922,60.234"/> <path id="path62" fill="none" stroke="#231F20" stroke-width="4" stroke-miterlimit="10" d="M134.038,769.995 c15.073-23.271,87.339-129.697,94.058-131.553c74.629-20.332,160.02-186.338,199.902-234.648 c8.594-10.547,16.074-31.143,19.863-40.742c1.934-4.766,18.77-40.371,28.291-57.119l14.971-68.33l2.48-60.068 c0,0-23.809-56.88-37.422,16.104l-9.678,46.978c-4.424,7.314-20.713,31.318-25.039,41.763 c-4.307,10.435-30.049,42.461-29.922,60.234"/> </g>  </g></g><g id="ProcessOnG1124"><path id="ProcessOnPath1125" d="M817.0 651.5L920.5 668.0" stroke="#323232" stroke-width="2.0" stroke-dasharray="none" fill="none"/></g><g id="ProcessOnG1126" transform="matrix(1.0,0.0,0.0,1.0,772.0,774.0)" opacity="1.0"><g id="ProcessOnG1128" transform="matrix(1.0,0.0,0.0,1.0,0.0,0.0)"> <g id="g12" transform="scale(0.1,0.1)"> <path id="path22" fill="#036998" d="M116.731,650.378h584.204v-109.15H116.731V650.378z"/> <path id="path24" fill="none" stroke="#FFFFFF" stroke-width="3.9999" d="M116.731,650.378h584.204v-109.15H116.731V650.378z"/> <path id="path26" fill="#036998" d="M799.998,441.57v110.498l-99.063,99.248V541.228H116.101"/> <path id="path28" fill="none" stroke="#FFFFFF" stroke-width="3.9999" d="M799.998,441.57v110.498l-99.063,99.248V541.228H116.101" /> <path id="path30" fill="#036998" d="M120.779,441.57h679.219"/> <path id="path32" fill="none" stroke="#FFFFFF" stroke-width="3.9999" d="M120.779,441.57h679.219"/> <path id="path34" fill="#036998" d="M700.935,541.228l99.063-99.658"/> <path id="path36" fill="none" stroke="#FFFFFF" stroke-width="3.9999" d="M700.935,541.228l99.063-99.658"/> <path id="path38" fill="#036998" d="M116.101,538.943h584.063V99.451H116.101V538.943z"/> <path id="path40" fill="none" stroke="#FFFFFF" stroke-width="3.9999" d="M116.101,538.943h584.063V99.451H116.101V538.943z"/> <path id="path42" fill="#036998" d="M700.164,538.943l99.834-99.238V-0.002H215.945l-99.844,99.453h584.063V538.943"/> <path id="path44" fill="none" stroke="#FFFFFF" stroke-width="3.9999" d="M700.164,538.943l99.834-99.238V-0.002H215.945 l-99.844,99.453h584.063V538.943z"/> <path id="path46" fill="#036998" d="M167.195,488.152h482.08v-337.92h-482.08V488.152z"/> <path id="path48" fill="none" stroke="#FFFFFF" stroke-width="3.9999" d="M167.195,488.152h482.08v-337.92h-482.08V488.152z"/> <path id="path50" fill="#036998" d="M700.164,99.451l99.834-99.453"/> <path id="path52" fill="none" stroke="#FFFFFF" stroke-width="3.9999" d="M700.164,99.451l99.834-99.453"/> <path id="path54" fill="#036998" d="M672.039,729.997V665.31H-0.002l76.538-76.367h672.026v64.678L672.039,729.997"/> <path id="path56" fill="none" stroke="#FFFFFF" stroke-width="3.9999" d="M672.039,729.997V665.31H-0.002l76.538-76.367h672.026 v64.678L672.039,729.997z"/> <path id="path58" fill="#036998" d="M-0.002,729.997h672.041V665.31H-0.002V729.997z"/> <path id="path60" fill="none" stroke="#FFFFFF" stroke-width="3.9999" d="M-0.002,729.997h672.041V665.31H-0.002V729.997z"/> <path id="path62" fill="#036998" d="M672.039,665.31l76.523-76.367"/> <path id="path64" fill="none" stroke="#FFFFFF" stroke-width="3.9999" d="M672.039,665.31l76.523-76.367"/> </g>  </g></g><g id="ProcessOnG1129"><path id="ProcessOnPath1130" d="M777.0 688.5L812.0 774.0" stroke="#323232" stroke-width="2.0" stroke-dasharray="none" fill="none"/></g><g id="ProcessOnG1131" transform="matrix(1.0,0.0,0.0,1.0,94.5,843.5)" opacity="1.0"><g id="ProcessOnG1133" transform="matrix(1.0,0.0,0.0,1.0,0.0,0.0)"> <g id="g12" transform="scale(0.1,0.1)"> <path id="path22" fill="#036998" d="M116.731,650.378h584.204v-109.15H116.731V650.378z"/> <path id="path24" fill="none" stroke="#FFFFFF" stroke-width="3.9999" d="M116.731,650.378h584.204v-109.15H116.731V650.378z"/> <path id="path26" fill="#036998" d="M799.998,441.57v110.498l-99.063,99.248V541.228H116.101"/> <path id="path28" fill="none" stroke="#FFFFFF" stroke-width="3.9999" d="M799.998,441.57v110.498l-99.063,99.248V541.228H116.101" /> <path id="path30" fill="#036998" d="M120.779,441.57h679.219"/> <path id="path32" fill="none" stroke="#FFFFFF" stroke-width="3.9999" d="M120.779,441.57h679.219"/> <path id="path34" fill="#036998" d="M700.935,541.228l99.063-99.658"/> <path id="path36" fill="none" stroke="#FFFFFF" stroke-width="3.9999" d="M700.935,541.228l99.063-99.658"/> <path id="path38" fill="#036998" d="M116.101,538.943h584.063V99.451H116.101V538.943z"/> <path id="path40" fill="none" stroke="#FFFFFF" stroke-width="3.9999" d="M116.101,538.943h584.063V99.451H116.101V538.943z"/> <path id="path42" fill="#036998" d="M700.164,538.943l99.834-99.238V-0.002H215.945l-99.844,99.453h584.063V538.943"/> <path id="path44" fill="none" stroke="#FFFFFF" stroke-width="3.9999" d="M700.164,538.943l99.834-99.238V-0.002H215.945 l-99.844,99.453h584.063V538.943z"/> <path id="path46" fill="#036998" d="M167.195,488.152h482.08v-337.92h-482.08V488.152z"/> <path id="path48" fill="none" stroke="#FFFFFF" stroke-width="3.9999" d="M167.195,488.152h482.08v-337.92h-482.08V488.152z"/> <path id="path50" fill="#036998" d="M700.164,99.451l99.834-99.453"/> <path id="path52" fill="none" stroke="#FFFFFF" stroke-width="3.9999" d="M700.164,99.451l99.834-99.453"/> <path id="path54" fill="#036998" d="M672.039,729.997V665.31H-0.002l76.538-76.367h672.026v64.678L672.039,729.997"/> <path id="path56" fill="none" stroke="#FFFFFF" stroke-width="3.9999" d="M672.039,729.997V665.31H-0.002l76.538-76.367h672.026 v64.678L672.039,729.997z"/> <path id="path58" fill="#036998" d="M-0.002,729.997h672.041V665.31H-0.002V729.997z"/> <path id="path60" fill="none" stroke="#FFFFFF" stroke-width="3.9999" d="M-0.002,729.997h672.041V665.31H-0.002V729.997z"/> <path id="path62" fill="#036998" d="M672.039,665.31l76.523-76.367"/> <path id="path64" fill="none" stroke="#FFFFFF" stroke-width="3.9999" d="M672.039,665.31l76.523-76.367"/> </g>  </g></g><g id="ProcessOnG1134"><path id="ProcessOnPath1135" d="M134.5 843.5L248.0 740.0" stroke="#323232" stroke-width="2.0" stroke-dasharray="none" fill="none"/></g><g id="ProcessOnG1136" transform="matrix(1.0,0.0,0.0,1.0,68.5,212.5)" opacity="1.0"><g id="ProcessOnG1138" transform="matrix(1.0,0.0,0.0,1.0,0.0,0.0)"> <g id="g12" transform="scale(0.1,0.1)"> <path id="path22" fill="#036998" d="M116.731,650.378h584.204v-109.15H116.731V650.378z"/> <path id="path24" fill="none" stroke="#FFFFFF" stroke-width="3.9999" d="M116.731,650.378h584.204v-109.15H116.731V650.378z"/> <path id="path26" fill="#036998" d="M799.998,441.57v110.498l-99.063,99.248V541.228H116.101"/> <path id="path28" fill="none" stroke="#FFFFFF" stroke-width="3.9999" d="M799.998,441.57v110.498l-99.063,99.248V541.228H116.101" /> <path id="path30" fill="#036998" d="M120.779,441.57h679.219"/> <path id="path32" fill="none" stroke="#FFFFFF" stroke-width="3.9999" d="M120.779,441.57h679.219"/> <path id="path34" fill="#036998" d="M700.935,541.228l99.063-99.658"/> <path id="path36" fill="none" stroke="#FFFFFF" stroke-width="3.9999" d="M700.935,541.228l99.063-99.658"/> <path id="path38" fill="#036998" d="M116.101,538.943h584.063V99.451H116.101V538.943z"/> <path id="path40" fill="none" stroke="#FFFFFF" stroke-width="3.9999" d="M116.101,538.943h584.063V99.451H116.101V538.943z"/> <path id="path42" fill="#036998" d="M700.164,538.943l99.834-99.238V-0.002H215.945l-99.844,99.453h584.063V538.943"/> <path id="path44" fill="none" stroke="#FFFFFF" stroke-width="3.9999" d="M700.164,538.943l99.834-99.238V-0.002H215.945 l-99.844,99.453h584.063V538.943z"/> <path id="path46" fill="#036998" d="M167.195,488.152h482.08v-337.92h-482.08V488.152z"/> <path id="path48" fill="none" stroke="#FFFFFF" stroke-width="3.9999" d="M167.195,488.152h482.08v-337.92h-482.08V488.152z"/> <path id="path50" fill="#036998" d="M700.164,99.451l99.834-99.453"/> <path id="path52" fill="none" stroke="#FFFFFF" stroke-width="3.9999" d="M700.164,99.451l99.834-99.453"/> <path id="path54" fill="#036998" d="M672.039,729.997V665.31H-0.002l76.538-76.367h672.026v64.678L672.039,729.997"/> <path id="path56" fill="none" stroke="#FFFFFF" stroke-width="3.9999" d="M672.039,729.997V665.31H-0.002l76.538-76.367h672.026 v64.678L672.039,729.997z"/> <path id="path58" fill="#036998" d="M-0.002,729.997h672.041V665.31H-0.002V729.997z"/> <path id="path60" fill="none" stroke="#FFFFFF" stroke-width="3.9999" d="M-0.002,729.997h672.041V665.31H-0.002V729.997z"/> <path id="path62" fill="#036998" d="M672.039,665.31l76.523-76.367"/> <path id="path64" fill="none" stroke="#FFFFFF" stroke-width="3.9999" d="M672.039,665.31l76.523-76.367"/> </g>  </g></g><g id="ProcessOnG1139"><path id="ProcessOnPath1140" d="M148.5 249.0L239.5 255.0" stroke="#323232" stroke-width="2.0" stroke-dasharray="none" fill="none"/></g><g id="ProcessOnG1141" transform="matrix(1.0,0.0,0.0,1.0,814.5,191.5)" opacity="1.0"><g id="ProcessOnG1143" transform="matrix(1.0,0.0,0.0,1.0,0.0,0.0)"> <g id="g12" transform="scale(0.1,0.1)"> <path id="path22" fill="#036998" d="M116.731,650.378h584.204v-109.15H116.731V650.378z"/> <path id="path24" fill="none" stroke="#FFFFFF" stroke-width="3.9999" d="M116.731,650.378h584.204v-109.15H116.731V650.378z"/> <path id="path26" fill="#036998" d="M799.998,441.57v110.498l-99.063,99.248V541.228H116.101"/> <path id="path28" fill="none" stroke="#FFFFFF" stroke-width="3.9999" d="M799.998,441.57v110.498l-99.063,99.248V541.228H116.101" /> <path id="path30" fill="#036998" d="M120.779,441.57h679.219"/> <path id="path32" fill="none" stroke="#FFFFFF" stroke-width="3.9999" d="M120.779,441.57h679.219"/> <path id="path34" fill="#036998" d="M700.935,541.228l99.063-99.658"/> <path id="path36" fill="none" stroke="#FFFFFF" stroke-width="3.9999" d="M700.935,541.228l99.063-99.658"/> <path id="path38" fill="#036998" d="M116.101,538.943h584.063V99.451H116.101V538.943z"/> <path id="path40" fill="none" stroke="#FFFFFF" stroke-width="3.9999" d="M116.101,538.943h584.063V99.451H116.101V538.943z"/> <path id="path42" fill="#036998" d="M700.164,538.943l99.834-99.238V-0.002H215.945l-99.844,99.453h584.063V538.943"/> <path id="path44" fill="none" stroke="#FFFFFF" stroke-width="3.9999" d="M700.164,538.943l99.834-99.238V-0.002H215.945 l-99.844,99.453h584.063V538.943z"/> <path id="path46" fill="#036998" d="M167.195,488.152h482.08v-337.92h-482.08V488.152z"/> <path id="path48" fill="none" stroke="#FFFFFF" stroke-width="3.9999" d="M167.195,488.152h482.08v-337.92h-482.08V488.152z"/> <path id="path50" fill="#036998" d="M700.164,99.451l99.834-99.453"/> <path id="path52" fill="none" stroke="#FFFFFF" stroke-width="3.9999" d="M700.164,99.451l99.834-99.453"/> <path id="path54" fill="#036998" d="M672.039,729.997V665.31H-0.002l76.538-76.367h672.026v64.678L672.039,729.997"/> <path id="path56" fill="none" stroke="#FFFFFF" stroke-width="3.9999" d="M672.039,729.997V665.31H-0.002l76.538-76.367h672.026 v64.678L672.039,729.997z"/> <path id="path58" fill="#036998" d="M-0.002,729.997h672.041V665.31H-0.002V729.997z"/> <path id="path60" fill="none" stroke="#FFFFFF" stroke-width="3.9999" d="M-0.002,729.997h672.041V665.31H-0.002V729.997z"/> <path id="path62" fill="#036998" d="M672.039,665.31l76.523-76.367"/> <path id="path64" fill="none" stroke="#FFFFFF" stroke-width="3.9999" d="M672.039,665.31l76.523-76.367"/> </g>  </g></g><g id="ProcessOnG1144"><path id="ProcessOnPath1145" d="M738.0 228.0L814.5 228.0" stroke="#323232" stroke-width="2.0" stroke-dasharray="none" fill="none"/></g></g></g></svg>